<svg xmlns="http://www.w3.org/2000/svg" viewBox="0 0 512 512" fill="none">
  <circle cx="256" cy="256" r="256" fill="#E0F7FA"/>
  <path d="M380 170c-20-10-40-5-60 5c-20 10-40 30-50 50c-10 20-10 40 0 60c10 20 30 30 50 30c20 0 40-10 50-30c10-20 5-40-5-60z" fill="#00C853" opacity="0"/>
  <!-- Bird Body/Tail -->
  <path d="M120 420 C 180 380, 240 300, 260 240 C 280 180, 240 120, 180 100 C 120 120, 140 180, 120 420" fill="#00E676"/>
  <!-- Wing -->
  <path d="M260 240 C 300 280, 360 280, 400 240 C 420 220, 440 200, 420 180 C 380 160, 320 160, 280 180 C 260 200, 260 240, 260 240" fill="#00C853"/>
  
  <!-- Refined Bird Shape based on image -->
  <path d="M136.7 408.6C168.8 385.4 220.5 316.5 236.4 268.8C252.3 221.1 228.4 165.4 180.7 133.6C164.8 123 148.9 117.7 133 117.7C133 117.7 159.5 149.5 154.2 197.2C148.9 244.9 106.5 308.5 136.7 408.6Z" fill="#10B981"/>
  <path d="M236.4 268.8C262.9 295.3 315.9 295.3 353 268.8C371.6 255.5 390.1 239.6 395.4 223.7C400.7 207.8 384.8 191.9 363.6 186.6C321.2 176 278.8 191.9 257.6 213.1C247 223.7 241.7 242.3 236.4 268.8Z" fill="#00C853"/>
  <path d="M395.4 223.7C406 218.4 421.9 218.4 432.5 223.7C437.8 226.4 437.8 231.7 432.5 237C421.9 247.6 406 247.6 395.4 242.3L395.4 223.7Z" fill="#00C853"/>
</svg>
